# xmcd
#
# Track frame offsets:
#	150
#	19840
#	40570
#	64626
#	102451
#	131108
#	153709
#	183760
#	212731
#	256836
#
# Disc length: 3768 seconds
#
# Revision: 1
# Processed by: cddbd v1.5PL3 Copyright (c) Steve Scherf et al.
# Submitted via: audiograbber 1.82.01
#
DISCID=840eb60a
DTITLE=Big Blues Revival - Black Gold For White House
DYEAR=2002
DGENRE=Blues
TTITLE0=I'm Ready
TTITLE1=Good Morning Little School Girl
TTITLE2=Close To You
TTITLE3=I Just Wanna Make Love To You
TTITLE4=Roger's Blues
TTITLE5=Who's Been Talkin'
TTITLE6=Hi Heel Sneakers
TTITLE7=I'm Your Hoochie Coochie Man
TTITLE8=Spoonfull
TTITLE9=Got My Mojo Working
EXTD=JFC Jazz Club, St. Petersburg, Moscow, Russia - 30.09.2002
EXTT0=
EXTT1=
EXTT2=
EXTT3=
EXTT4=
EXTT5=
EXTT6=
EXTT7=
EXTT8=
EXTT9=
PLAYORDER=
